<?xml version="1.0" encoding="UTF-8" standalone="no"?>
<svg
   version="1.1"
   id="Layer_1"
   x="0px"
   y="0px"
   width="8426884"
   viewBox="0 0 8426884 92416"
   enable-background="new 0 0 2903 304"
   xml:space="preserve"
   height="92416"
   xmlns="http://www.w3.org/2000/svg"
   xmlns:svg="http://www.w3.org/2000/svg"><defs
   id="defs51" />






















<g
   id="g219"
   transform="translate(-2903,-304)"><path
     fill="#feffff"
     opacity="1"
     stroke="none"
     d="m 2750,305 c -315.6924,0 -631.385,0 -947.3582,-0.38794 44.3051,-3.45651 78.1641,-25.26068 105.2571,-60.0675 -9.9421,-5.43578 -19.1249,-10.47387 -28.3242,-15.48116 -9.1477,-4.97925 -18.3125,-9.92758 -27.5572,-14.93694 -1.6714,1.76592 -3.0208,3.2253 -4.4057,4.65 -25.5904,26.32649 -66.4703,30.76892 -95.9337,10.43024 -42.7733,-29.52654 -52.4467,-91.22614 -20.7948,-132.634968 25.0221,-32.735444 66.051,-41.606087 100.8929,-21.303795 7.5141,4.378349 13.9786,10.557831 21.2287,16.140289 17.8691,-9.628853 36.2334,-19.524551 54.7075,-29.479412 -12.0088,-16.469414 -26.01,-29.857029 -43.046,-39.871388 -46.3457,-27.243399 -93.6641,-27.802079 -139.9765,-1.498603 -57.3503,32.57262 -84.1912,97.924097 -72.0676,162.576337 6.2974,33.58179 22.3132,62.18003 47.6903,85.15668 19.6505,17.79184 42.4929,29.54574 68.8401,33.99005 5.2849,0.89145 10.565,1.81134 15.8473,2.71811 -369.6925,0 -739.385,0 -1109.36743,-0.38977 9.97973,-2.27182 20.66479,-2.92792 30.44934,-6.24228 49.6557,-16.81995 78.42224,-63.19797 79.60425,-111.46674 1.43548,-58.61682 0.51513,-117.291362 0.59851,-175.940956 0.002,-1.118252 -0.18976,-2.236778 -0.29871,-3.439718 -20.81018,0 -41.35473,0 -62.15295,0 0,2.178326 0,4.002231 0,5.826136 0,54.153389 -0.003,108.306778 0.003,162.460168 10e-4,11.08688 -1.43738,21.9322 -5.76801,32.21809 -8.74072,20.76012 -24.02172,32.66406 -46.86547,33.77954 -22.56769,1.10198 -39.55048,-8.21191 -50.71137,-27.95691 -7.11249,-12.58293 -8.81488,-26.31134 -8.80316,-40.46287 0.0443,-53.32022 0.0177,-106.640511 0.0177,-159.96077 0,-1.942814 0,-3.885628 0,-5.933049 -21.19189,0 -41.74695,0 -62.63507,0 0,2.131131 6e-5,3.939127 6e-5,5.747125 0,53.82014 0.0624,107.640374 -0.0258,161.460364 -0.0455,27.7688 5.92853,53.81302 21.48462,77.17795 16.49457,24.77442 38.59094,41.93988 67.81452,49.16669 6.16778,1.52527 12.43505,2.64853 18.65649,3.957 -133.02582,0 -266.05167,0 -399.66815,-0.35382 -2.0291,-0.74823 -3.47841,-1.10709 -4.90428,-1.54266 -12.54576,-3.83213 -21.22715,-17.48746 -19.23801,-30.23874 2.13679,-13.698 13.71786,-23.60886 27.56578,-23.26471 3.69247,0.0918 7.36282,1.0746 10.91183,1.62785 0,-18.18341 0,-36.38441 0,-55.0899 -0.89587,0.8379 -1.38958,1.24244 -1.81713,1.7078 -21.30106,23.18425 -42.63643,46.33739 -63.80661,69.6406 -1.48398,1.63348 -2.37189,4.35654 -2.46073,6.61526 C 203.17795,284.39285 203.15819,294.69916 203,305 135.78253,305 68.565063,305 1,305 1,290.6427 1,276.28262 1.350596,261.50256 35.501751,235.33585 68.313034,208.37379 98.013245,177.95407 111.80113,163.83215 124.29407,148.3817 136.65533,132.95752 143.0811,124.93955 148.037,115.62917 148.92606,104.99354 150.64853,84.387817 137.32889,64.172287 117.67392,57.089798 97.783646,49.92252 75.324371,56.929165 63.042965,74.016144 57.064716,82.333618 54.013165,91.610718 53.739136,102 35.895531,102 18.447765,102 1,102 1,68.40155 1,34.803104 1,1 c 35.692238,0 71.384865,0 107.75659,0.344853 19.34381,1.84623 36.37647,7.793586 51.38025,19.132379 25.6046,19.350134 40.07352,44.786074 41.80609,77.081041 1.08042,20.138797 -5.45361,38.243817 -15.30966,55.689927 -0.71861,1.28789 -1.20151,2.37952 -1.6844,3.47113 0.3286,0.22632 0.65719,0.45264 0.98579,0.67895 1.02289,-1.40649 2.04578,-2.81298 3.3712,-4.38995 5.86588,-4.7831 12.08226,-7.3968 19.48851,-7.21651 12.85109,0.31287 24.25879,10.00327 26.18173,22.5503 2.17562,14.19569 -5.70361,26.819 -19.29988,30.92041 -12.69952,3.83088 -25.87492,-2.14315 -31.97601,-13.89228 -3.81935,-7.35508 -3.02684,-14.7463 -1.48439,-22.48014 1.07527,-1.46582 1.84271,-2.78412 2.61017,-4.10241 -0.3488,-0.18965 -0.6976,-0.37928 -1.04639,-0.56894 -0.93034,1.58208 -1.86067,3.16414 -3.00232,5.01192 -23.43596,35.32787 -54.19535,63.6727 -84.21993,93.7446 1.650742,0.0985 2.418198,0.18405 3.185677,0.18423 30.152223,0.007 60.304853,0.0685 90.455763,-0.13055 2.09219,-0.0138 4.68958,-1.49509 6.17951,-3.10263 24.34167,-26.26367 48.58618,-52.61813 72.68084,-79.10835 1.6713,-1.83747 2.81342,-4.90085 2.82053,-7.39804 C 272.03717,111.94695 272.00012,56.473423 272,1 c 877.2128,0 1754.4254,0 2631.8191,0 0,101.33309 0,202.6665 0,304 -45.5759,0 -91.2363,0 -137.1687,-0.38263 16.8655,-1.22733 33.3242,-5.08728 48.8306,-12.37457 64.7707,-30.43903 97.3317,-99.819 84.0437,-169.76967 -6.2022,-32.650811 -21.5887,-60.764592 -46.4229,-83.055867 -39.7534,-35.682875 -85.9404,-46.829117 -136.8054,-30.674534 -58.481,18.573311 -96.5427,72.945481 -101.0083,132.005031 -2.9634,39.19252 7.1037,74.97532 30.9678,106.35717 22.4113,29.47216 51.5908,48.59136 88.4253,55.1986 5.1032,0.9154 10.2124,1.79843 15.3188,2.69647 m -388.6299,-5.99881 c 1.4441,-0.067 2.8882,-0.13406 4.2649,-0.19794 0,-97.35978 0,-194.3787 0,-291.241329 -20.918,0 -41.4683,0 -62.6206,0 0,59.014861 0,117.635189 0,177.701279 -1.9148,-3.14295 -3.0371,-4.95227 -4.1282,-6.7802 -33.3308,-55.84556 -66.6767,-111.681792 -99.9287,-167.574138 -1.6311,-2.741479 -3.3186,-3.867066 -6.6308,-3.835404 -19.4922,0.186335 -38.9873,0.086714 -58.4815,0.101721 -1.4514,0.00112 -2.9026,0.145336 -4.4414,0.227707 0,97.333374 0,194.351904 0,291.239084 20.8958,0 41.4551,0 62.5191,0 0,-59.01201 0,-117.66649 0,-177.69549 1.7941,2.84325 2.8593,4.45306 3.8476,6.10877 33.4138,55.98929 66.8442,111.9688 100.1599,168.0165 1.7349,2.91885 3.5384,4.04956 6.9798,4.01684 19.1591,-0.1821 38.321,-0.0874 58.4599,-0.0874 M 524.09845,218.61465 C 545.98053,173.38007 546.17017,127.8245 521.88513,84.036797 494.0657,33.876198 450.05588,8.232475 392.45017,7.255151 362.2977,6.743592 332.12943,7.164896 301.96829,7.164896 c -1.57229,0 -3.14459,-1e-6 -4.59488,-1e-6 0,97.729925 0,194.637765 0,291.693965 1.10712,0.0574 1.91928,0.13614 2.73145,0.13629 32.32739,0.006 64.65713,0.21975 96.98071,-0.13166 9.09693,-0.0989 18.37726,-0.97753 27.229,-3.00347 44.79313,-10.25223 77.78324,-36.16117 99.78388,-77.24537 m 411.40173,17.85711 c -21.43579,0 -42.87158,0 -64.48077,0 0,-21.08455 0,-41.61942 0,-62.62783 31.70386,0 63.09863,0 94.61523,0 0,-20.90361 0,-41.33192 0,-62.30802 -31.59259,0 -62.99066,0 -94.65533,0 0,-14.106398 0,-27.665282 0,-41.793173 41.08118,0 81.9552,0 122.75146,0 0,-21.137284 0,-41.70455 0,-62.195446 -62.04699,0 -123.75018,0 -185.39532,0 0,97.284529 0,194.185359 0,291.182999 61.9845,0 123.70196,0 185.40649,0 0,-20.81986 0,-41.36609 0,-62.25832 -19.30066,0 -38.27118,0 -58.24176,-2.1e-4 M 1926.0686,39.499992 c 0,86.402578 0,172.805168 0,259.195688 62.3237,0 124.0427,0 185.8447,0 0,-20.76227 0,-41.21777 0,-62.26181 -41.0322,0 -81.9099,0 -122.8526,0 0,-21.12001 0,-41.64917 0,-62.65821 31.7408,0 63.1307,0 94.5316,0 0,-20.90591 0,-41.32794 0,-62.30729 -31.6294,0 -63.0213,0 -94.6049,0 0,-14.115076 0,-27.670389 0,-41.798288 41.1442,0 82.0116,0 122.704,0 0,-21.139442 0,-41.703304 0,-62.257914 -61.9614,0 -123.5411,0 -185.6228,0 0,10.522769 0,20.805296 0,32.087824 m 599.7671,209.000038 c 0,-59.42987 0,-118.85974 0,-178.729248 27.9646,0 55.3762,0 82.9822,0 0,-21.010528 0,-41.579273 0,-62.372408 -76.3218,0 -152.388,0 -228.7202,0 0,20.799555 0,41.365325 0,62.55707 27.738,0 55.2653,0 83.2119,0 0,76.690656 0,152.756406 0,228.742736 21.0134,0 41.5952,0 62.5261,0 0,-16.60016 0,-32.89914 0,-50.19815 M 1522.4916,178.00207 c 2.3335,0 4.7121,0.29256 6.9914,-0.0588 5.304,-0.81774 8.1138,1.2926 10.8257,6.04078 21.2008,37.12065 42.7539,74.04027 64.2976,110.96398 0.9557,1.63775 2.8368,3.82229 4.3496,3.87277 10.2613,0.34225 20.5393,0.17883 31.7008,0.17883 -23.9277,-41.42672 -47.456,-82.16179 -71.1678,-123.21466 1.661,-0.42872 2.454,-0.64195 3.251,-0.83792 46.789,-11.50436 72.7928,-57.70862 60.2981,-105.558821 -9.9526,-38.114809 -42.1508,-62.094869 -81.6952,-62.206745 -30.8305,-0.087222 -61.6614,-0.020577 -92.4921,-0.00771 -1.452,6.06e-4 -2.904,0.143321 -4.4281,0.223647 0,97.349829 0,194.383719 0,291.258689 9.776,0 19.1946,0 28.9089,0 0,-40.29139 0,-80.23754 0,-120.654 12.9224,0 25.5425,0 39.1601,0 M 1352.5,128.16205 c -30.9506,0 -61.9012,0 -93.0254,0 0,-30.751566 0,-60.987001 0,-91.771215 49.5601,0 98.8191,0 148.0498,0 0,-9.974741 0,-19.396572 0,-28.944081 -59.2201,0 -118.1265,0 -177.0864,0 0,97.324856 0,194.364526 0,291.213156 59.2875,0 118.2037,0 177.1841,0 0,-9.612 0,-18.87894 0,-28.80023 -49.5648,0 -98.9185,0 -148.0747,0 0,-37.89726 0,-75.13747 0,-112.79129 40.9619,0 81.5489,0 122.1964,0 0,-9.80774 0,-19.19434 0,-28.90633 -9.6333,0 -18.9385,0 -29.2438,-1e-5 m -311.3315,162.30194 c 0,-37.41481 0,-74.82962 0,-112.46198 21.3446,0 41.9958,-0.0383 62.6468,0.0108 20.5902,0.049 38.9904,-6.08819 54.6672,-19.56865 18.7515,-16.12446 28.7852,-36.57599 29.9124,-61.374288 1.2013,-26.428375 -7.2847,-49.033142 -26.4762,-67.380766 -16.3446,-15.626053 -36.1541,-22.494556 -58.5315,-22.517818 -28.6584,-0.029792 -57.3168,-0.00724 -85.9752,-0.00724 -1.6195,-1e-6 -3.239,-1e-6 -5.0311,-1e-6 0,97.525603 0,194.544383 0,291.532553 9.7274,0 19.1399,0 28.7876,0 0,-2.61798 0,-4.93219 0,-8.2326 M 197.51948,184.02841 c 1.21412,0.85707 2.33091,1.92697 3.65918,2.53433 5.75075,2.6296 11.31757,2.27062 16.33788,-1.72799 4.8896,-3.89452 6.43642,-9.26747 5.24391,-15.15099 -1.22156,-6.02699 -5.25349,-9.84999 -11.24075,-11.36993 -6.02583,-1.52974 -12.77376,1.18185 -16.10997,6.30581 -3.76071,5.77587 -3.22788,12.09471 2.10975,19.40877 m 74.48311,85.08606 c -0.88964,-1.48337 -1.46231,-3.3565 -2.7239,-4.38248 -5.40302,-4.39395 -13.76795,-3.83572 -19.25928,1.02082 -5.36327,4.74325 -6.52092,12.12823 -2.91646,18.60498 3.43076,6.16461 10.84831,9.15603 17.50798,7.06073 5.84473,-1.8389 7.39069,-3.91641 7.39273,-9.93964 10e-4,-3.82574 1.2e-4,-7.65146 -0.001,-12.36441 z"
     id="path2" /><path
     fill="#1a3c68"
     opacity="1"
     stroke="none"
     d="m 197.26053,183.76282 c -5.07868,-7.04847 -5.61151,-13.36731 -1.8508,-19.14318 3.33621,-5.12396 10.08414,-7.83555 16.10997,-6.30581 5.98726,1.51994 10.01919,5.34294 11.24075,11.36993 1.19251,5.88352 -0.35431,11.25647 -5.24391,15.15099 -5.02031,3.99861 -10.58713,4.35759 -16.33788,1.72799 -1.32827,-0.60736 -2.44506,-1.67726 -3.91813,-2.79992 z"
     id="path32" /><path
     fill="#fbfcfc"
     opacity="1"
     stroke="none"
     d="m 186.63327,153.2482 c 0.71002,-0.18532 1.18434,-0.17439 2.01434,-0.11643 -0.66717,1.45353 -1.69006,2.86002 -2.71295,4.26651 -0.3286,-0.22631 -0.65719,-0.45263 -0.98579,-0.67895 0.48289,-1.09161 0.96579,-2.18324 1.6844,-3.47113 z"
     id="path36" /><path
     fill="#fbfcfc"
     opacity="1"
     stroke="none"
     d="m 182.21582,162.89011 c -0.3078,0.14755 -0.76878,0.12713 -0.998,0.10101 0.70111,-1.60822 1.63144,-3.19028 2.56178,-4.77236 0.34879,0.18966 0.69759,0.37929 1.04639,0.56894 -0.76746,1.31829 -1.5349,2.63659 -2.61017,4.10241 z"
     id="path38" /><path
     fill="#fefeff"
     opacity="1"
     stroke="none"
     d="m 2706.9739,84.957779 c 16.4045,-14.194466 34.7986,-21.695934 56.4624,-20.240387 24.195,1.625595 42.8659,13.324554 57.5168,31.861145 30.0796,38.057323 23.7456,96.601333 -13.5078,127.261443 -33.4682,27.54483 -79.5884,23.09229 -107.9502,-10.01999 -31.2781,-36.51701 -29.8091,-94.31364 7.4788,-128.862211 z"
     id="path40" /><path
     fill="#ffffff"
     opacity="1"
     stroke="none"
     d="m 435.20471,225.26511 c -13.4364,7.77656 -27.56109,11.43005 -42.73447,11.23399 -10.65643,-0.1377 -21.31607,-0.0266 -32.36862,-0.0266 0,-55.42695 0,-110.65407 0,-166.239643 0.8252,-0.108109 1.92737,-0.39991 3.02195,-0.373665 14.80008,0.35482 29.71957,-0.307358 44.37396,1.356598 33.43542,3.796486 64.29471,35.34699 68.57193,68.75674 4.74457,37.06057 -9.29843,65.1839 -40.86475,85.29258 z"
     id="path42" /><path
     fill="#fefefe"
     opacity="1"
     stroke="none"
     d="m 1483.1659,127.99977 c 0,-31.771506 0,-63.043059 0,-94.083381 0.803,-0.379829 1.0914,-0.636524 1.3789,-0.635215 23.479,0.106929 47.0194,-0.789563 70.4216,0.613292 30.6774,1.838967 52.6263,27.354912 51.9566,58.156659 -0.7093,32.617665 -25.2642,56.723045 -57.882,56.776845 -20.1584,0.0333 -40.3169,0.006 -60.4753,0.006 -1.6209,0 -3.2417,0 -5.3998,0 0,-7.1057 0,-13.72006 0,-20.83438 z"
     id="path44" /><path
     fill="#fefefe"
     opacity="1"
     stroke="none"
     d="m 1102.636,35.500053 c 19.3761,0.773129 35.0167,8.108608 46.0768,23.701904 24.9929,35.237126 4.8694,88.919603 -42.0136,91.508163 -21.5477,1.18973 -43.2157,0.20263 -65.181,0.20263 0,-38.28713 0,-76.484783 0,-115.419125 20.1809,0 40.4159,0 61.1178,0.0064 z"
     id="path46" /></g>
</svg>
