<?xml version="1.0" encoding="UTF-8" standalone="no"?>
<!-- Created with Inkscape (http://www.inkscape.org/) -->

<svg
   version="1.1"
   id="svg1"
   width="928.96002"
   height="97.279999"
   viewBox="0 0 928.96002 97.279999"
   xmlns="http://www.w3.org/2000/svg"
   xmlns:svg="http://www.w3.org/2000/svg">
  <defs
     id="defs1" />
  <g
     id="g1">
    <path
       style="fill:#ffffff;fill-opacity:1"
       d="m 64.971973,91.599995 0.01197,-5.68 9.146082,-9.92 c 5.030345,-5.456 9.920958,-10.772539 10.868029,-11.814532 l 1.721948,-1.894532 v 9.025791 9.025791 l -0.72,-0.394919 c -1.023097,-0.561166 -4.959033,-0.483525 -6.364661,0.12555 -1.759585,0.762451 -3.806915,2.776451 -4.642427,4.566851 -1.932065,4.140178 0.01254,9.481815 4.197148,11.529153 1.491435,0.729691 2.038218,0.826796 4.066532,0.722186 1.288875,-0.06647 2.595408,-0.237625 2.903408,-0.380336 0.40866,-0.189352 0.56,-0.120503 0.56,0.25476 0,0.462233 -1.100284,0.514237 -10.88,0.514237 h -10.88 z M 206.47516,96.480811 C 198.8526,95.099074 192.39349,91.633481 187.01216,86.038063 181.22948,80.02534 177.61353,72.816598 176.11058,64.304716 175.56499,61.214794 175.52,58.717271 175.52,31.519996 v -29.44 l 9.84,-0.08463 9.84,-0.08463 2.7e-4,26.644624 c 1.6e-4,15.933275 0.13368,28.051549 0.33214,30.144367 0.57385,6.051497 2.45513,10.295371 6.12592,13.819125 3.31705,3.184181 6.9285,4.591672 11.78168,4.591672 8.37473,0 14.33194,-4.718945 17.02397,-13.485378 l 0.72016,-2.345162 0.0989,-29.679999 0.0989,-29.68 h 9.90899 9.909 v 29.2482 c 0,27.792313 -0.0319,29.434648 -0.64035,32.99384 -1.07709,6.300303 -3.41127,12.229796 -6.77484,17.210082 -1.88322,2.788406 -7.04439,7.865311 -9.82345,9.663076 -4.29597,2.779047 -8.8468,4.574717 -13.80136,5.445742 -3.32165,0.583955 -10.46305,0.58389 -13.68485,-1.25e-4 z m 359.89957,0.02193 c -14.39574,-2.525751 -26.6926,-11.87802 -33.40893,-25.408866 -9.3416,-18.819764 -6.06656,-41.43839 8.17961,-56.491437 7.63673,-8.069259 16.97723,-12.767586 27.8146,-13.990911 14.30086,-1.614283 28.62954,4.179858 38.46509,15.554273 1.36694,1.580809 2.4405,3.015198 2.38568,3.187533 -0.10107,0.317773 -16.78328,9.431622 -17.2817,9.441367 -0.14902,0.0029 -1.17698,-0.822702 -2.28436,-1.834702 -8.74897,-7.995428 -21.32169,-8.898201 -30.67553,-2.20263 -16.60455,11.885691 -15.77255,38.341698 1.53649,48.857306 9.32049,5.662391 20.77901,4.422935 28.97949,-3.134677 1.19356,-1.1 2.27694,-2 2.40749,-2 0.34479,0 17.42735,9.322716 17.42735,9.51088 0,0.392264 -3.35766,4.286523 -5.33618,6.188966 -6.39043,6.144714 -13.6535,10.108336 -22.02382,12.018896 -3.04782,0.69568 -12.89835,0.880698 -16.18528,0.304002 z m 308.73478,-0.04017 c -19.86825,-3.345852 -35.77649,-20.810435 -38.30655,-42.054179 -2.41311,-20.261843 8.24208,-40.432561 26.07706,-49.364927 12.4693,-6.245053 26.78589,-6.243059 39.36,0.0055 4.05354,2.014355 7.85689,4.858949 11.84192,8.856784 9.41858,9.448854 14.21385,21.107703 14.23234,34.603386 0.012,8.742726 -1.54833,15.345328 -5.44843,23.055599 -6.73632,13.317274 -19.15901,22.578816 -33.42583,24.920083 -3.49595,0.573706 -10.85958,0.562285 -14.33051,-0.02223 z m 12.184,-19.83963 c 10.15717,-2.046896 18.7944,-11.463205 20.74183,-22.612748 2.43271,-13.927921 -5.18542,-27.83978 -17.72127,-32.361711 -18.29616,-6.599794 -37.05939,11.314496 -33.50555,31.989598 1.07541,6.256405 3.42496,10.99607 7.65315,15.438456 6.20027,6.514358 14.4396,9.237629 22.83184,7.546405 z M 94.798932,48.719995 94.880002,2.079996 109.44,1.989796 c 19.9547,-0.123623 24.33464,0.245844 31.40091,2.648798 6.55591,2.229401 12.49191,5.984841 17.71379,11.206712 9.80555,9.805554 14.60099,22.623931 13.58556,36.314691 -1.2164,16.40046 -11.12141,31.007324 -26.11999,38.519006 -4.17434,2.090615 -10.09072,3.779147 -15.20765,4.34025 -1.791,0.196393 -10.09468,0.340744 -19.60108,0.340744 H 94.717862 Z m 36.962908,26.031529 c 8.56022,-2.159288 16.3175,-9.073619 19.09328,-17.018506 1.20788,-3.457213 1.56662,-6.181145 1.38309,-10.501705 -0.12657,-2.979476 -0.35686,-4.461069 -0.99963,-6.431318 -2.27741,-6.980775 -7.22997,-12.714789 -13.79858,-15.975829 -4.68962,-2.328205 -5.62819,-2.496789 -14.8,-2.658343 L 114.56,22.0235 v 26.534914 c 0,14.594203 0.108,26.64656 0.24,26.783016 0.44363,0.458599 14.78208,-0.04007 16.96184,-0.589906 z m 126.5571,-26.031529 0.0811,-46.639999 29.68,-0.08166 29.68,-0.08166 v 10.081657 10.081658 h -19.8465 -19.84649 l 0.0865,6.64 0.0865,6.64 15.28,0.0831 15.28,0.0831 v 9.916896 9.916897 h -15.36456 -15.36456 l 0.0846,10 0.0846,10 19.76,0.08244 19.76,0.08244 v 9.917559 9.917559 h -29.76107 -29.76107 z m 65.28,0 0.0811,-46.639999 16.8,0.0251 c 16.24512,0.02427 16.88455,0.04822 19.36,0.725088 4.9356,1.349561 8.94016,3.695041 12.52106,7.333614 2.25823,2.294599 3.35117,3.890721 4.92551,7.19319 2.03301,4.264637 2.39343,6.060065 2.39343,11.923011 0,6.074742 -0.36346,7.753687 -2.70169,12.479999 -2.73946,5.537333 -6.53585,9.33265 -12.01831,12.014927 -5.23708,2.562223 -5.61013,2.614683 -19.76,2.778738 l -12.4,0.143767 v 19.331284 19.331284 h -4.64107 -4.64107 z m 32.92011,-1.820273 c 4.27505,-0.906157 8.22251,-3.55324 10.82495,-7.258984 1.95945,-2.79016 2.77216,-4.892145 3.19485,-8.263152 1.16811,-9.315884 -3.979,-17.518968 -12.77884,-20.365955 -1.52004,-0.491775 -3.34155,-0.586537 -13.36,-0.695038 l -11.6,-0.125629 V 28.77548 47.359995 l 10.8,-0.0056 c 8.03254,-0.0041 11.34299,-0.120652 12.91904,-0.454717 z m 36.83989,1.820273 0.0811,-46.639999 h 28.32 28.32 l 0.0888,4.56 0.0888,4.56 h -23.84878 -23.84879 v 14.72 14.719999 h 19.68 19.68 v 4.64 4.64 h -19.68 -19.68 v 18.08 18.08 h 23.84 23.84 v 4.64 4.64 H 421.759 393.27793 Z m 71.68,0 0.0811,-46.639999 h 17.12 c 18.61039,0 19.4551,0.06358 24.04622,1.809966 14.37664,5.468623 21.08449,23.511524 14.0361,37.754554 -3.34927,6.768046 -9.03462,11.550519 -16.15542,13.589825 -1.14779,0.328714 -2.0869,0.714538 -2.0869,0.857387 0,0.14285 5.04,8.980094 11.2,19.638321 6.16,10.658228 11.2,19.438631 11.2,19.512008 0,0.07338 -2.39121,0.09393 -5.31381,0.04567 l -5.31381,-0.08774 -11.13526,-19.2 -11.13525,-19.2 -8.67093,-0.08514 -8.67094,-0.08514 V 75.99485 95.359993 h -4.64107 -4.64107 z m 35.25373,-1.993007 c 1.36127,-0.348154 3.22031,-1.029222 4.13119,-1.513483 2.13126,-1.133063 6.2166,-5.218401 7.34966,-7.349662 2.09255,-3.93603 2.68004,-9.435318 1.50062,-14.046789 -0.82018,-3.206909 -2.16966,-5.505255 -4.79413,-8.165081 -2.50701,-2.540784 -6.36057,-4.581721 -9.6,-5.084387 -1.144,-0.177515 -7.156,-0.323843 -13.36,-0.325173 l -11.28,-0.0024 v 18.559983 18.559999 h 11.78881 c 10.69795,0 12.01784,-0.05857 14.26385,-0.633007 z m 115.78627,1.993007 0.0811,-46.639999 29.68001,-0.08166 29.68,-0.08166 v 10.081657 10.081658 h -19.8465 -19.84649 l 0.0865,6.64 0.0865,6.64 15.28,0.0831 15.28,0.0831 v 9.916896 9.916897 h -15.3646 -15.36456 l 0.0846,10 0.0846,10 19.76,0.08244 19.76,0.08244 v 9.917559 9.917559 h -29.76107 -29.76108 z m 64.96001,0 0.0811,-46.639999 10.6443,-0.08432 10.64431,-0.08432 0.8757,1.383211 c 0.48163,0.760766 8.14769,13.577951 17.03569,28.482632 8.888,14.904682 16.268,27.100181 16.4,27.101108 0.132,9.28e-4 0.24,-12.814313 0.24,-28.478312 V 1.919996 h 9.92 9.92 v 46.719999 46.72 l -10.8,-0.0047 -10.8,-0.0047 -16.96,-28.467418 c -9.328,-15.657079 -17.068,-28.470953 -17.2,-28.475276 -0.132,-0.0043 -0.24,12.808141 -0.24,28.472141 v 28.48 h -9.92107 -9.92107 z m 106.80107,10 V 22.079996 h -13.28 -13.28 v -10.08 -10.08 h 36.64 36.64 v 10.08 10.08 h -13.28 -13.28 v 36.639999 36.64 h -10.08 -10.08 z M 81.120002,92.685705 c -1.712954,-0.79244 -3.04,-2.733031 -3.04,-4.44551 0,-1.353722 1.243666,-3.301929 2.591361,-4.059376 1.561376,-0.877542 3.699898,-0.78532 5.045195,0.217571 0.800782,0.596967 0.84804,0.791485 0.934313,3.845659 l 0.09087,3.216887 -1.000096,0.712132 c -1.227033,0.873724 -3.335549,1.107603 -4.621641,0.512637 z M 0,57.778881 V 32.319996 H 8.4091749 16.81835 l 0.355448,-2.257372 c 0.654498,-4.156563 3.34146,-8.306475 6.825999,-10.542498 4.774683,-3.063905 11.545724,-3.063905 16.320407,0 5.208655,3.342385 8.065729,10.056545 6.604164,15.51987 C 44.76603,43.107856 32.317194,56.922645 12.16,73.618894 6.603609,78.221266 1.1682516,82.559712 0.4,83.005606 0.0814064,83.190518 0,78.056474 0,57.778881 Z M 38.906899,73.519995 C 48.929849,63.388287 53.15758,58.547798 56.798552,53.035171 c 1.291087,-1.954776 1.693431,-2.203659 1.098565,-0.679556 -0.662179,1.696564 -0.461957,4.620358 0.438026,6.396388 0.927573,1.830477 2.945988,3.793381 4.660198,4.532031 1.492927,0.643301 4.962181,0.634246 6.505337,-0.01698 1.710131,-0.721689 4.098658,-3.042876 4.835933,-4.699592 0.951057,-2.137103 0.870112,-5.146821 -0.194904,-7.246939 -2.921764,-5.761462 -10.255452,-6.687975 -14.617042,-1.846666 -0.776022,0.861376 -1.18747,1.206137 -0.914327,0.766137 2.440423,-3.93123 4.460346,-8.850587 5.251627,-12.78991 0.714317,-3.556166 0.485459,-9.610328 -0.50239,-13.290088 C 61.488919,17.191763 57.080054,10.799275 51.052649,6.315979 46.776772,3.135502 42.404064,1.29022 37.280001,0.503924 34.692642,0.10689 37.058157,0.058834 60.560001,0.03099 L 86.720002,0 V 27.287497 54.574995 L 74.168089,68.247493 61.616175,81.919995 H 46.106622 30.597068 Z m 25.08811,-14.263677 c -1.222111,-0.639743 -2.559725,-2.846786 -2.54798,-4.204127 0.01437,-1.660445 1.118069,-3.400116 2.617713,-4.126081 1.73279,-0.83883 2.580611,-0.851231 4.316486,-0.06314 0.949728,0.431179 1.53352,0.985848 2,1.900224 0.846728,1.659723 0.831722,2.763908 -0.06123,4.505316 -0.822939,1.604875 -2.35659,2.571482 -4.08,2.571482 -0.621492,0 -1.631739,-0.262655 -2.244993,-0.583677 z"
       id="path1" />
  </g>
</svg>
