<svg version="1.1" id="Layer_1" xmlns="http://www.w3.org/2000/svg" xmlns:xlink="http://www.w3.org/1999/xlink" x="0px" y="0px"
	 width="100%" viewBox="0 0 2903 304" enable-background="new 0 0 2903 304" xml:space="preserve">
<path fill="#FEFFFF" opacity="1.000000" stroke="none" 
	d="
M2750.000000,305.000000 
	C2434.307617,305.000000 2118.614990,305.000000 1802.641846,304.612061 
	C1846.946899,301.155548 1880.805908,279.351379 1907.898926,244.544556 
	C1897.956787,239.108780 1888.774048,234.070694 1879.574707,229.063400 
	C1870.427002,224.084152 1861.262207,219.135818 1852.017456,214.126465 
	C1850.346069,215.892380 1848.996704,217.351761 1847.611816,218.776459 
	C1822.021362,245.102951 1781.141479,249.545380 1751.678101,229.206696 
	C1708.904785,199.680161 1699.231445,137.980560 1730.883301,96.571732 
	C1755.905396,63.836288 1796.934326,54.965645 1831.776245,75.267937 
	C1839.290283,79.646286 1845.754761,85.825768 1853.004883,91.408226 
	C1870.874023,81.779373 1889.238281,71.883675 1907.712402,61.928814 
	C1895.703613,45.459400 1881.702393,32.071785 1864.666382,22.057426 
	C1818.320679,-5.185973 1771.002319,-5.744653 1724.689941,20.558823 
	C1667.339600,53.131443 1640.498657,118.482918 1652.622314,183.135162 
	C1658.919678,216.716949 1674.935547,245.315186 1700.312622,268.291840 
	C1719.963135,286.083679 1742.805542,297.837585 1769.152710,302.281891 
	C1774.437622,303.173340 1779.717651,304.093231 1785.000000,305.000000 
	C1415.307495,305.000000 1045.614990,305.000000 675.632568,304.610229 
	C685.612305,302.338409 696.297363,301.682312 706.081909,298.367950 
	C755.737610,281.548004 784.504150,235.169983 785.686157,186.901215 
	C787.121643,128.284393 786.201294,69.609848 786.284668,10.960254 
	C786.286255,9.842002 786.094910,8.723476 785.985962,7.520536 
	C765.175781,7.520536 744.631226,7.520536 723.833008,7.520536 
	C723.833008,9.698862 723.833008,11.522767 723.833008,13.346672 
	C723.833008,67.500061 723.829895,121.653450 723.835510,175.806839 
	C723.836609,186.893723 722.398132,197.739044 718.067505,208.024933 
	C709.326782,228.785049 694.045776,240.688995 671.202026,241.804474 
	C648.634338,242.906448 631.651550,233.592560 620.490662,213.847565 
	C613.378174,201.264633 611.675781,187.536224 611.687500,173.384689 
	C611.731750,120.064468 611.705200,66.744179 611.705200,13.423920 
	C611.705200,11.481106 611.705200,9.538292 611.705200,7.490871 
	C590.513306,7.490871 569.958252,7.490871 549.070129,7.490871 
	C549.070129,9.622002 549.070190,11.429998 549.070190,13.237996 
	C549.070190,67.058136 549.132568,120.878372 549.044373,174.698364 
	C548.998840,202.467163 554.972900,228.511383 570.528992,251.876312 
	C587.023560,276.650726 609.119934,293.816193 638.343506,301.042999 
	C644.511292,302.568268 650.778564,303.691528 657.000000,305.000000 
	C523.974182,305.000000 390.948334,305.000000 257.331848,304.646179 
	C255.302750,303.897949 253.853439,303.539093 252.427567,303.103516 
	C239.881805,299.271393 231.200424,285.616058 233.189560,272.864777 
	C235.326355,259.166779 246.907425,249.255920 260.755341,249.600067 
	C264.447815,249.691818 268.118164,250.674667 271.667175,251.227921 
	C271.667175,233.044510 271.667175,214.843506 271.667175,196.138016 
	C270.771301,196.975922 270.277588,197.380463 269.850037,197.845825 
	C248.548981,221.030075 227.213608,244.183212 206.043427,267.486420 
	C204.559448,269.119904 203.671539,271.842957 203.582703,274.101685 
	C203.177948,284.392853 203.158188,294.699158 203.000000,305.000000 
	C135.782532,305.000000 68.565063,305.000000 1.000000,305.000000 
	C1.000000,290.642700 1.000000,276.282623 1.350596,261.502563 
	C35.501751,235.335846 68.313034,208.373795 98.013245,177.954071 
	C111.801132,163.832153 124.294067,148.381699 136.655334,132.957520 
	C143.081100,124.939552 148.037003,115.629173 148.926056,104.993538 
	C150.648529,84.387817 137.328888,64.172287 117.673920,57.089798 
	C97.783646,49.922520 75.324371,56.929165 63.042965,74.016144 
	C57.064716,82.333618 54.013165,91.610718 53.739136,102.000000 
	C35.895531,102.000000 18.447765,102.000000 1.000000,102.000000 
	C1.000000,68.401550 1.000000,34.803104 1.000000,1.000000 
	C36.692238,1.000000 72.384865,1.000000 108.756592,1.344853 
	C128.100403,3.191083 145.133057,9.138439 160.136841,20.477232 
	C185.741440,39.827366 200.210358,65.263306 201.942932,97.558273 
	C203.023346,117.697075 196.489319,135.802094 186.633270,153.248199 
	C185.914658,154.536087 185.431763,155.627716 184.948868,156.719330 
	C185.277466,156.945648 185.606064,157.171967 185.934662,157.398285 
	C186.957550,155.991791 187.980438,154.585297 189.305862,153.008331 
	C195.171738,148.225235 201.388123,145.611526 208.794373,145.791824 
	C221.645462,146.104691 233.053162,155.795090 234.976105,168.342117 
	C237.151718,182.537811 229.272491,195.161118 215.676224,199.262527 
	C202.976700,203.093414 189.801300,197.119385 183.700211,185.370255 
	C179.880859,178.015167 180.673370,170.623947 182.215820,162.890106 
	C183.291092,161.424286 184.058533,160.105988 184.825989,158.787704 
	C184.477188,158.598053 184.128387,158.408417 183.779602,158.218765 
	C182.849258,159.800842 181.918930,161.382904 180.777283,163.230682 
	C157.341324,198.558548 126.581932,226.903381 96.557350,256.975281 
	C98.208092,257.073730 98.975548,257.159332 99.743027,257.159515 
	C129.895248,257.166229 160.047882,257.228027 190.198792,257.028961 
	C192.290985,257.015137 194.888367,255.533875 196.378296,253.926331 
	C220.719971,227.662659 244.964478,201.308197 269.059143,174.817978 
	C270.730438,172.980515 271.872559,169.917130 271.879669,167.419937 
	C272.037170,111.946953 272.000122,56.473423 272.000000,1.000000 
	C1149.212769,1.000000 2026.425415,1.000000 2903.819092,1.000000 
	C2903.819092,102.333092 2903.819092,203.666504 2903.819092,305.000000 
	C2858.243164,305.000000 2812.582764,305.000000 2766.650391,304.617371 
	C2783.515869,303.390045 2799.974609,299.530090 2815.480957,292.242798 
	C2880.251709,261.803772 2912.812744,192.423798 2899.524658,122.473129 
	C2893.322510,89.822319 2877.936035,61.708538 2853.101807,39.417263 
	C2813.348389,3.734388 2767.161377,-7.411854 2716.296387,8.742729 
	C2657.815430,27.316040 2619.753662,81.688210 2615.288086,140.747757 
	C2612.324707,179.940277 2622.391846,215.723083 2646.255859,247.104935 
	C2668.667236,276.577087 2697.846680,295.696289 2734.681152,302.303528 
	C2739.784424,303.218933 2744.893555,304.101959 2750.000000,305.000000 
M2361.370117,299.001190 
	C2362.814209,298.934143 2364.258301,298.867126 2365.635010,298.803253 
	C2365.635010,201.443466 2365.635010,104.424553 2365.635010,7.561921 
	C2344.717041,7.561921 2324.166748,7.561921 2303.014404,7.561921 
	C2303.014404,66.576782 2303.014404,125.197113 2303.014404,185.263199 
	C2301.099609,182.120255 2299.977295,180.310928 2298.886230,178.483002 
	C2265.555420,122.637436 2232.209473,66.801208 2198.957520,10.908862 
	C2197.326416,8.167383 2195.638916,7.041796 2192.326660,7.073458 
	C2172.834473,7.259793 2153.339355,7.160172 2133.845215,7.175179 
	C2132.393799,7.176297 2130.942627,7.320515 2129.403809,7.402886 
	C2129.403809,104.736259 2129.403809,201.754791 2129.403809,298.641968 
	C2150.299561,298.641968 2170.858887,298.641968 2191.922852,298.641968 
	C2191.922852,239.629959 2191.922852,180.975479 2191.922852,120.946480 
	C2193.717041,123.789726 2194.782227,125.399544 2195.770508,127.055252 
	C2229.184326,183.044540 2262.614746,239.024048 2295.930420,295.071747 
	C2297.665283,297.990601 2299.468750,299.121307 2302.910156,299.088593 
	C2322.069336,298.906494 2341.231201,299.001190 2361.370117,299.001190 
M524.098450,218.614655 
	C545.980530,173.380066 546.170166,127.824501 521.885132,84.036797 
	C494.065704,33.876198 450.055878,8.232475 392.450165,7.255151 
	C362.297699,6.743592 332.129425,7.164896 301.968292,7.164896 
	C300.395996,7.164896 298.823700,7.164895 297.373413,7.164895 
	C297.373413,104.894821 297.373413,201.802658 297.373413,298.858856 
	C298.480530,298.916229 299.292694,298.994995 300.104858,298.995148 
	C332.432251,299.001465 364.761993,299.214905 397.085571,298.863495 
	C406.182495,298.764618 415.462830,297.885956 424.314575,295.860016 
	C469.107697,285.607788 502.097809,259.698853 524.098450,218.614655 
M935.500183,236.471756 
	C914.064392,236.471756 892.628601,236.471756 871.019409,236.471756 
	C871.019409,215.387207 871.019409,194.852341 871.019409,173.843933 
	C902.723267,173.843933 934.118042,173.843933 965.634644,173.843933 
	C965.634644,152.940323 965.634644,132.512009 965.634644,111.535912 
	C934.042053,111.535912 902.643982,111.535912 870.979309,111.535912 
	C870.979309,97.429512 870.979309,83.870628 870.979309,69.742737 
	C912.060486,69.742737 952.934509,69.742737 993.730774,69.742737 
	C993.730774,48.605453 993.730774,28.038187 993.730774,7.547291 
	C931.683777,7.547291 869.980591,7.547291 808.335449,7.547291 
	C808.335449,104.831818 808.335449,201.732651 808.335449,298.730286 
	C870.319946,298.730286 932.037415,298.730286 993.741943,298.730286 
	C993.741943,277.910431 993.741943,257.364197 993.741943,236.471970 
	C974.441284,236.471970 955.470764,236.471970 935.500183,236.471756 
M1926.068604,39.499992 
	C1926.068604,125.902573 1926.068604,212.305161 1926.068604,298.695679 
	C1988.392334,298.695679 2050.111328,298.695679 2111.913330,298.695679 
	C2111.913330,277.933411 2111.913330,257.477905 2111.913330,236.433868 
	C2070.881104,236.433868 2030.003418,236.433868 1989.060669,236.433868 
	C1989.060669,215.313858 1989.060669,194.784698 1989.060669,173.775665 
	C2020.801514,173.775665 2052.191406,173.775665 2083.592285,173.775665 
	C2083.592285,152.869751 2083.592285,132.447723 2083.592285,111.468369 
	C2051.962891,111.468369 2020.571045,111.468369 1988.987427,111.468369 
	C1988.987427,97.353294 1988.987427,83.797981 1988.987427,69.670082 
	C2030.131592,69.670082 2070.999023,69.670082 2111.691406,69.670082 
	C2111.691406,48.530640 2111.691406,27.966778 2111.691406,7.412168 
	C2049.729980,7.412168 1988.150269,7.412168 1926.068604,7.412168 
	C1926.068604,17.934937 1926.068604,28.217464 1926.068604,39.499992 
M2525.835693,248.500031 
	C2525.835693,189.070160 2525.835693,129.640289 2525.835693,69.770782 
	C2553.800293,69.770782 2581.211914,69.770782 2608.817871,69.770782 
	C2608.817871,48.760254 2608.817871,28.191509 2608.817871,7.398374 
	C2532.496094,7.398374 2456.429932,7.398374 2380.097656,7.398374 
	C2380.097656,28.197929 2380.097656,48.763699 2380.097656,69.955444 
	C2407.835693,69.955444 2435.363037,69.955444 2463.309570,69.955444 
	C2463.309570,146.646103 2463.309570,222.711853 2463.309570,298.698181 
	C2484.322998,298.698181 2504.904785,298.698181 2525.835693,298.698181 
	C2525.835693,282.098022 2525.835693,265.799042 2525.835693,248.500031 
M1522.491577,178.002075 
	C1524.825073,178.002075 1527.203735,178.294632 1529.483032,177.943237 
	C1534.786987,177.125504 1537.596802,179.235840 1540.308716,183.984024 
	C1561.509521,221.104675 1583.062622,258.024292 1604.606323,294.947998 
	C1605.562012,296.585754 1607.443115,298.770294 1608.955933,298.820770 
	C1619.217163,299.163025 1629.495239,298.999603 1640.656738,298.999603 
	C1616.729004,257.572876 1593.200684,216.837814 1569.488892,175.784943 
	C1571.149902,175.356216 1571.942871,175.142990 1572.739868,174.947021 
	C1619.528931,163.442657 1645.532715,117.238396 1633.037964,69.388199 
	C1623.085449,31.273390 1590.887207,7.293330 1551.342773,7.181454 
	C1520.512329,7.094232 1489.681396,7.160877 1458.850708,7.173739 
	C1457.398682,7.174345 1455.946655,7.317060 1454.422607,7.397386 
	C1454.422607,104.747215 1454.422607,201.781097 1454.422607,298.656067 
	C1464.198608,298.656067 1473.617188,298.656067 1483.331543,298.656067 
	C1483.331543,258.364685 1483.331543,218.418533 1483.331543,178.002075 
	C1496.253906,178.002075 1508.874023,178.002075 1522.491577,178.002075 
M1352.500000,128.162048 
	C1321.549438,128.162048 1290.598755,128.162048 1259.474609,128.162048 
	C1259.474609,97.410484 1259.474609,67.175049 1259.474609,36.390835 
	C1309.034668,36.390835 1358.293701,36.390835 1407.524414,36.390835 
	C1407.524414,26.416094 1407.524414,16.994263 1407.524414,7.446754 
	C1348.304321,7.446754 1289.397949,7.446754 1230.437988,7.446754 
	C1230.437988,104.771606 1230.437988,201.811279 1230.437988,298.659912 
	C1289.725464,298.659912 1348.641724,298.659912 1407.622070,298.659912 
	C1407.622070,289.047913 1407.622070,279.780975 1407.622070,269.859680 
	C1358.057251,269.859680 1308.703613,269.859680 1259.547363,269.859680 
	C1259.547363,231.962418 1259.547363,194.722214 1259.547363,157.068390 
	C1300.509277,157.068390 1341.096313,157.068390 1381.743774,157.068390 
	C1381.743774,147.260651 1381.743774,137.874054 1381.743774,128.162064 
	C1372.110474,128.162064 1362.805298,128.162064 1352.500000,128.162048 
M1041.168457,290.463989 
	C1041.168457,253.049179 1041.168457,215.634369 1041.168457,178.002014 
	C1062.513062,178.002014 1083.164307,177.963684 1103.815308,178.012802 
	C1124.405518,178.061768 1142.805664,171.924606 1158.482544,158.444153 
	C1177.234009,142.319687 1187.267700,121.868156 1188.394897,97.069862 
	C1189.596191,70.641487 1181.110229,48.036720 1161.918701,29.689096 
	C1145.574097,14.063043 1125.764648,7.194540 1103.387207,7.171278 
	C1074.728760,7.141486 1046.070435,7.164041 1017.411987,7.164039 
	C1015.792542,7.164038 1014.173035,7.164038 1012.380859,7.164038 
	C1012.380859,104.689644 1012.380859,201.708420 1012.380859,298.696594 
	C1022.108276,298.696594 1031.520752,298.696594 1041.168457,298.696594 
	C1041.168457,296.078613 1041.168457,293.764404 1041.168457,290.463989 
M197.519485,184.028412 
	C198.733597,184.885483 199.850388,185.955383 201.178665,186.562744 
	C206.929413,189.192337 212.496231,188.833359 217.516541,184.834747 
	C222.406143,180.940231 223.952957,175.567276 222.760452,169.683762 
	C221.538895,163.656769 217.506958,159.833771 211.519699,158.313828 
	C205.493866,156.784088 198.745941,159.495682 195.409729,164.619644 
	C191.649017,170.395508 192.181854,176.714355 197.519485,184.028412 
M272.002594,269.114471 
	C271.112946,267.631104 270.540283,265.757965 269.278687,264.731995 
	C263.875671,260.338043 255.510742,260.896271 250.019409,265.752808 
	C244.656143,270.496063 243.498489,277.881042 247.102951,284.357788 
	C250.533707,290.522400 257.951263,293.513824 264.610931,291.418518 
	C270.455658,289.579620 272.001617,287.502106 272.003662,281.478882 
	C272.004974,277.653137 272.003784,273.827423 272.002594,269.114471 
z"/>
<path fill="#183A67" opacity="1.000000" stroke="none" 
	d="
M2750.466797,305.000000 
	C2744.893555,304.101959 2739.784424,303.218933 2734.681152,302.303528 
	C2697.846680,295.696289 2668.667236,276.577087 2646.255859,247.104935 
	C2622.391846,215.723083 2612.324707,179.940277 2615.288086,140.747757 
	C2619.753662,81.688210 2657.815430,27.316040 2716.296387,8.742729 
	C2767.161377,-7.411854 2813.348389,3.734388 2853.101807,39.417263 
	C2877.936035,61.708538 2893.322510,89.822319 2899.524658,122.473129 
	C2912.812744,192.423798 2880.251709,261.803772 2815.480957,292.242798 
	C2799.974609,299.530090 2783.515869,303.390045 2766.188965,304.617371 
	C2760.977783,305.000000 2755.955811,305.000000 2750.466797,305.000000 
M2706.698242,85.182526 
	C2669.686035,119.506348 2668.217041,177.302979 2699.495117,213.819992 
	C2727.856934,246.932266 2773.977051,251.384811 2807.445312,223.839981 
	C2844.698730,193.179871 2851.032715,134.635864 2820.953125,96.578537 
	C2806.302246,78.041946 2787.631348,66.342987 2763.436279,64.717392 
	C2741.772461,63.261845 2723.378418,70.763313 2706.698242,85.182526 
z"/>
<path fill="#183A67" opacity="1.000000" stroke="none" 
	d="
M657.467957,305.000000 
	C650.778564,303.691528 644.511292,302.568268 638.343506,301.042999 
	C609.119934,293.816193 587.023560,276.650726 570.528992,251.876312 
	C554.972900,228.511383 548.998840,202.467163 549.044373,174.698364 
	C549.132568,120.878372 549.070190,67.058136 549.070190,13.237996 
	C549.070190,11.429998 549.070129,9.622002 549.070129,7.490871 
	C569.958252,7.490871 590.513306,7.490871 611.705200,7.490871 
	C611.705200,9.538292 611.705200,11.481106 611.705200,13.423920 
	C611.705200,66.744179 611.731750,120.064468 611.687500,173.384689 
	C611.675781,187.536224 613.378174,201.264633 620.490662,213.847565 
	C631.651550,233.592560 648.634338,242.906448 671.202026,241.804474 
	C694.045776,240.688995 709.326782,228.785049 718.067505,208.024933 
	C722.398132,197.739044 723.836609,186.893723 723.835510,175.806839 
	C723.829895,121.653450 723.833008,67.500061 723.833008,13.346672 
	C723.833008,11.522767 723.833008,9.698862 723.833008,7.520536 
	C744.631226,7.520536 765.175781,7.520536 785.985962,7.520536 
	C786.094910,8.723476 786.286255,9.842002 786.284668,10.960254 
	C786.201294,69.609848 787.121643,128.284393 785.686157,186.901215 
	C784.504150,235.169983 755.737610,281.548004 706.081909,298.367950 
	C696.297363,301.682312 685.612305,302.338409 675.171265,304.610229 
	C669.311951,305.000000 663.623962,305.000000 657.467957,305.000000 
z"/>
<path fill="#183A67" opacity="1.000000" stroke="none" 
	d="
M1785.467529,305.000000 
	C1779.717651,304.093231 1774.437622,303.173340 1769.152710,302.281891 
	C1742.805542,297.837585 1719.963135,286.083679 1700.312622,268.291840 
	C1674.935547,245.315186 1658.919678,216.716949 1652.622314,183.135162 
	C1640.498657,118.482918 1667.339600,53.131443 1724.689941,20.558823 
	C1771.002319,-5.744653 1818.320679,-5.185973 1864.666382,22.057426 
	C1881.702393,32.071785 1895.703613,45.459400 1907.712402,61.928814 
	C1889.238281,71.883675 1870.874023,81.779373 1853.004883,91.408226 
	C1845.754761,85.825768 1839.290283,79.646286 1831.776245,75.267937 
	C1796.934326,54.965645 1755.905396,63.836288 1730.883301,96.571732 
	C1699.231445,137.980560 1708.904785,199.680161 1751.678101,229.206696 
	C1781.141479,249.545380 1822.021362,245.102951 1847.611816,218.776459 
	C1848.996704,217.351761 1850.346069,215.892380 1852.017456,214.126465 
	C1861.262207,219.135818 1870.427002,224.084152 1879.574707,229.063400 
	C1888.774048,234.070694 1897.956787,239.108780 1907.898926,244.544556 
	C1880.805908,279.351379 1846.946899,301.155548 1802.180664,304.612061 
	C1796.645020,305.000000 1791.290161,305.000000 1785.467529,305.000000 
z"/>
<path fill="#183A67" opacity="1.000000" stroke="none" 
	d="
M271.531342,1.000000 
	C272.000122,56.473423 272.037170,111.946953 271.879669,167.419937 
	C271.872559,169.917130 270.730438,172.980515 269.059143,174.817978 
	C244.964478,201.308197 220.719971,227.662659 196.378296,253.926331 
	C194.888367,255.533875 192.290985,257.015137 190.198792,257.028961 
	C160.047882,257.228027 129.895248,257.166229 99.743027,257.159515 
	C98.975548,257.159332 98.208092,257.073730 96.557350,256.975281 
	C126.581932,226.903381 157.341324,198.558548 181.006500,163.256805 
	C181.447037,163.017242 181.908020,163.037659 181.908020,163.037659 
	C180.673370,170.623947 179.880859,178.015167 183.700211,185.370255 
	C189.801300,197.119385 202.976700,203.093414 215.676224,199.262527 
	C229.272491,195.161118 237.151718,182.537811 234.976105,168.342117 
	C233.053162,155.795090 221.645462,146.104691 208.794373,145.791824 
	C201.388123,145.611526 195.171738,148.225235 188.950165,152.961304 
	C187.817612,153.073807 187.343292,153.062881 186.868988,153.051941 
	C196.489319,135.802094 203.023346,117.697075 201.942932,97.558273 
	C200.210358,65.263306 185.741440,39.827366 160.136841,20.477232 
	C145.133057,9.138439 128.100403,3.191083 109.217850,1.344853 
	C163.020889,1.000000 217.041794,1.000000 271.531342,1.000000 
z"/>
<path fill="#183A66" opacity="1.000000" stroke="none" 
	d="
M1.000000,102.468658 
	C18.447765,102.000000 35.895531,102.000000 53.739136,102.000000 
	C54.013165,91.610718 57.064716,82.333618 63.042965,74.016144 
	C75.324371,56.929165 97.783646,49.922520 117.673920,57.089798 
	C137.328888,64.172287 150.648529,84.387817 148.926056,104.993538 
	C148.037003,115.629173 143.081100,124.939552 136.655334,132.957520 
	C124.294067,148.381699 111.801132,163.832153 98.013245,177.954071 
	C68.313034,208.373795 35.501751,235.335846 1.350596,261.041321 
	C1.000000,208.312439 1.000000,155.624878 1.000000,102.468658 
z"/>
<path fill="#193A67" opacity="1.000000" stroke="none" 
	d="
M203.468658,305.000000 
	C203.158188,294.699158 203.177948,284.392853 203.582703,274.101685 
	C203.671539,271.842957 204.559448,269.119904 206.043427,267.486420 
	C227.213608,244.183212 248.548981,221.030075 269.850037,197.845825 
	C270.277588,197.380463 270.771301,196.975922 271.667175,196.138016 
	C271.667175,214.843506 271.667175,233.044510 271.667175,251.227921 
	C268.118164,250.674667 264.447815,249.691818 260.755341,249.600067 
	C246.907425,249.255920 235.326355,259.166779 233.189560,272.864777 
	C231.200424,285.616058 239.881805,299.271393 252.427567,303.103516 
	C253.853439,303.539093 255.302750,303.897949 256.870605,304.646179 
	C239.312439,305.000000 221.624878,305.000000 203.468658,305.000000 
z"/>
<path fill="#183A67" opacity="1.000000" stroke="none" 
	d="
M2360.881104,299.001190 
	C2341.231201,299.001190 2322.069336,298.906494 2302.910156,299.088593 
	C2299.468750,299.121307 2297.665283,297.990601 2295.930420,295.071747 
	C2262.614746,239.024048 2229.184326,183.044540 2195.770508,127.055252 
	C2194.782227,125.399544 2193.717041,123.789726 2191.922852,120.946480 
	C2191.922852,180.975479 2191.922852,239.629959 2191.922852,298.641968 
	C2170.858887,298.641968 2150.299561,298.641968 2129.403809,298.641968 
	C2129.403809,201.754791 2129.403809,104.736259 2129.403809,7.402886 
	C2130.942627,7.320515 2132.393799,7.176297 2133.845215,7.175179 
	C2153.339355,7.160172 2172.834473,7.259793 2192.326660,7.073458 
	C2195.638916,7.041796 2197.326416,8.167383 2198.957520,10.908862 
	C2232.209473,66.801208 2265.555420,122.637436 2298.886230,178.483002 
	C2299.977295,180.310928 2301.099609,182.120255 2303.014404,185.263199 
	C2303.014404,125.197113 2303.014404,66.576782 2303.014404,7.561921 
	C2324.166748,7.561921 2344.717041,7.561921 2365.635010,7.561921 
	C2365.635010,104.424553 2365.635010,201.443466 2365.635010,298.803253 
	C2364.258301,298.867126 2362.814209,298.934143 2360.881104,299.001190 
z"/>
<path fill="#183A67" opacity="1.000000" stroke="none" 
	d="
M523.962524,218.960693 
	C502.097809,259.698853 469.107697,285.607788 424.314575,295.860016 
	C415.462830,297.885956 406.182495,298.764618 397.085571,298.863495 
	C364.761993,299.214905 332.432251,299.001465 300.104858,298.995148 
	C299.292694,298.994995 298.480530,298.916229 297.373413,298.858856 
	C297.373413,201.802658 297.373413,104.894821 297.373413,7.164895 
	C298.823700,7.164895 300.395996,7.164896 301.968292,7.164896 
	C332.129425,7.164896 362.297699,6.743592 392.450165,7.255151 
	C450.055878,8.232475 494.065704,33.876198 521.885132,84.036797 
	C546.170166,127.824501 545.980530,173.380066 523.962524,218.960693 
M435.513733,225.067108 
	C466.771027,205.156433 480.814026,177.033096 476.069458,139.972534 
	C471.792236,106.562782 440.932953,75.012276 407.497528,71.215790 
	C392.843140,69.551834 377.923645,70.214012 363.123566,69.859192 
	C362.028992,69.832947 360.926819,70.124748 360.101624,70.232857 
	C360.101624,125.818428 360.101624,181.045547 360.101624,236.472504 
	C371.154175,236.472504 381.813812,236.361404 392.470245,236.499100 
	C407.643616,236.695160 421.768311,233.041672 435.513733,225.067108 
z"/>
<path fill="#193A67" opacity="1.000000" stroke="none" 
	d="
M936.000244,236.471863 
	C955.470764,236.471970 974.441284,236.471970 993.741943,236.471970 
	C993.741943,257.364197 993.741943,277.910431 993.741943,298.730286 
	C932.037415,298.730286 870.319946,298.730286 808.335449,298.730286 
	C808.335449,201.732651 808.335449,104.831818 808.335449,7.547291 
	C869.980591,7.547291 931.683777,7.547291 993.730774,7.547291 
	C993.730774,28.038187 993.730774,48.605453 993.730774,69.742737 
	C952.934509,69.742737 912.060486,69.742737 870.979309,69.742737 
	C870.979309,83.870628 870.979309,97.429512 870.979309,111.535912 
	C902.643982,111.535912 934.042053,111.535912 965.634644,111.535912 
	C965.634644,132.512009 965.634644,152.940323 965.634644,173.843933 
	C934.118042,173.843933 902.723267,173.843933 871.019409,173.843933 
	C871.019409,194.852341 871.019409,215.387207 871.019409,236.471756 
	C892.628601,236.471756 914.064392,236.471756 936.000244,236.471863 
z"/>
<path fill="#193A67" opacity="1.000000" stroke="none" 
	d="
M1926.068604,38.999992 
	C1926.068604,28.217464 1926.068604,17.934937 1926.068604,7.412168 
	C1988.150269,7.412168 2049.729980,7.412168 2111.691406,7.412168 
	C2111.691406,27.966778 2111.691406,48.530640 2111.691406,69.670082 
	C2070.999023,69.670082 2030.131592,69.670082 1988.987427,69.670082 
	C1988.987427,83.797981 1988.987427,97.353294 1988.987427,111.468369 
	C2020.571045,111.468369 2051.962891,111.468369 2083.592285,111.468369 
	C2083.592285,132.447723 2083.592285,152.869751 2083.592285,173.775665 
	C2052.191406,173.775665 2020.801514,173.775665 1989.060669,173.775665 
	C1989.060669,194.784698 1989.060669,215.313858 1989.060669,236.433868 
	C2030.003418,236.433868 2070.881104,236.433868 2111.913330,236.433868 
	C2111.913330,257.477905 2111.913330,277.933411 2111.913330,298.695679 
	C2050.111328,298.695679 1988.392334,298.695679 1926.068604,298.695679 
	C1926.068604,212.305161 1926.068604,125.902573 1926.068604,38.999992 
z"/>
<path fill="#183A67" opacity="1.000000" stroke="none" 
	d="
M2525.835693,249.000046 
	C2525.835693,265.799042 2525.835693,282.098022 2525.835693,298.698181 
	C2504.904785,298.698181 2484.322998,298.698181 2463.309570,298.698181 
	C2463.309570,222.711853 2463.309570,146.646103 2463.309570,69.955444 
	C2435.363037,69.955444 2407.835693,69.955444 2380.097656,69.955444 
	C2380.097656,48.763699 2380.097656,28.197929 2380.097656,7.398374 
	C2456.429932,7.398374 2532.496094,7.398374 2608.817871,7.398374 
	C2608.817871,28.191509 2608.817871,48.760254 2608.817871,69.770782 
	C2581.211914,69.770782 2553.800293,69.770782 2525.835693,69.770782 
	C2525.835693,129.640289 2525.835693,189.070160 2525.835693,249.000046 
z"/>
<path fill="#193A67" opacity="1.000000" stroke="none" 
	d="
M1521.992920,178.002075 
	C1508.874023,178.002075 1496.253906,178.002075 1483.331543,178.002075 
	C1483.331543,218.418533 1483.331543,258.364685 1483.331543,298.656067 
	C1473.617188,298.656067 1464.198608,298.656067 1454.422607,298.656067 
	C1454.422607,201.781097 1454.422607,104.747215 1454.422607,7.397386 
	C1455.946655,7.317060 1457.398682,7.174345 1458.850708,7.173739 
	C1489.681396,7.160877 1520.512329,7.094232 1551.342773,7.181454 
	C1590.887207,7.293330 1623.085449,31.273390 1633.037964,69.388199 
	C1645.532715,117.238396 1619.528931,163.442657 1572.739868,174.947021 
	C1571.942871,175.142990 1571.149902,175.356216 1569.488892,175.784943 
	C1593.200684,216.837814 1616.729004,257.572876 1640.656738,298.999603 
	C1629.495239,298.999603 1619.217163,299.163025 1608.955933,298.820770 
	C1607.443115,298.770294 1605.562012,296.585754 1604.606323,294.947998 
	C1583.062622,258.024292 1561.509521,221.104675 1540.308716,183.984024 
	C1537.596802,179.235840 1534.786987,177.125504 1529.483032,177.943237 
	C1527.203735,178.294632 1524.825073,178.002075 1521.992920,178.002075 
M1483.165894,128.499725 
	C1483.165894,135.114090 1483.165894,141.728455 1483.165894,148.834152 
	C1485.323975,148.834152 1486.944824,148.834152 1488.565674,148.834152 
	C1508.724121,148.834152 1528.882568,148.861221 1549.041016,148.827972 
	C1581.658813,148.774170 1606.213745,124.668785 1606.922974,92.051125 
	C1607.592651,61.249378 1585.643799,35.733433 1554.966431,33.894466 
	C1531.564209,32.491611 1508.023804,33.388103 1484.544800,33.281174 
	C1484.257324,33.279865 1483.968872,33.536560 1483.165894,33.916389 
	C1483.165894,64.956711 1483.165894,96.228264 1483.165894,128.499725 
z"/>
<path fill="#193B67" opacity="1.000000" stroke="none" 
	d="
M1353.000000,128.162048 
	C1362.805298,128.162064 1372.110474,128.162064 1381.743774,128.162064 
	C1381.743774,137.874054 1381.743774,147.260651 1381.743774,157.068390 
	C1341.096313,157.068390 1300.509277,157.068390 1259.547363,157.068390 
	C1259.547363,194.722214 1259.547363,231.962418 1259.547363,269.859680 
	C1308.703613,269.859680 1358.057251,269.859680 1407.622070,269.859680 
	C1407.622070,279.780975 1407.622070,289.047913 1407.622070,298.659912 
	C1348.641724,298.659912 1289.725464,298.659912 1230.437988,298.659912 
	C1230.437988,201.811279 1230.437988,104.771606 1230.437988,7.446754 
	C1289.397949,7.446754 1348.304321,7.446754 1407.524414,7.446754 
	C1407.524414,16.994263 1407.524414,26.416094 1407.524414,36.390835 
	C1358.293701,36.390835 1309.034668,36.390835 1259.474609,36.390835 
	C1259.474609,67.175049 1259.474609,97.410484 1259.474609,128.162048 
	C1290.598755,128.162048 1321.549438,128.162048 1353.000000,128.162048 
z"/>
<path fill="#193A67" opacity="1.000000" stroke="none" 
	d="
M1041.168457,290.957092 
	C1041.168457,293.764404 1041.168457,296.078613 1041.168457,298.696594 
	C1031.520752,298.696594 1022.108276,298.696594 1012.380859,298.696594 
	C1012.380859,201.708420 1012.380859,104.689644 1012.380859,7.164038 
	C1014.173035,7.164038 1015.792542,7.164038 1017.411987,7.164039 
	C1046.070435,7.164041 1074.728760,7.141486 1103.387207,7.171278 
	C1125.764648,7.194540 1145.574097,14.063043 1161.918701,29.689096 
	C1181.110229,48.036720 1189.596191,70.641487 1188.394897,97.069862 
	C1187.267700,121.868156 1177.234009,142.319687 1158.482544,158.444153 
	C1142.805664,171.924606 1124.405518,178.061768 1103.815308,178.012802 
	C1083.164307,177.963684 1062.513062,178.002014 1041.168457,178.002014 
	C1041.168457,215.634369 1041.168457,253.049179 1041.168457,290.957092 
M1102.169189,33.167503 
	C1081.934082,33.167503 1061.699097,33.167503 1041.518188,33.167503 
	C1041.518188,72.101845 1041.518188,110.299500 1041.518188,148.586624 
	C1063.483521,148.586624 1085.151489,149.573730 1106.699219,148.384003 
	C1153.582153,145.795441 1173.705688,92.112961 1148.712769,56.875835 
	C1137.652710,41.282539 1122.012085,33.947060 1102.169189,33.167503 
z"/>
<path fill="#1A3C68" opacity="1.000000" stroke="none" 
	d="
M197.260529,183.762817 
	C192.181854,176.714355 191.649017,170.395508 195.409729,164.619644 
	C198.745941,159.495682 205.493866,156.784088 211.519699,158.313828 
	C217.506958,159.833771 221.538895,163.656769 222.760452,169.683762 
	C223.952957,175.567276 222.406143,180.940231 217.516541,184.834747 
	C212.496231,188.833359 206.929413,189.192337 201.178665,186.562744 
	C199.850388,185.955383 198.733597,184.885483 197.260529,183.762817 
z"/>
<path fill="#193B68" opacity="1.000000" stroke="none" 
	d="
M272.003174,269.558075 
	C272.003784,273.827423 272.004974,277.653137 272.003662,281.478882 
	C272.001617,287.502106 270.455658,289.579620 264.610931,291.418518 
	C257.951263,293.513824 250.533707,290.522400 247.102951,284.357788 
	C243.498489,277.881042 244.656143,270.496063 250.019409,265.752808 
	C255.510742,260.896271 263.875671,260.338043 269.278687,264.731995 
	C270.540283,265.757965 271.112946,267.631104 272.003174,269.558075 
z"/>
<path fill="#FBFCFC" opacity="1.000000" stroke="none" 
	d="
M186.633270,153.248199 
	C187.343292,153.062881 187.817612,153.073807 188.647614,153.131775 
	C187.980438,154.585297 186.957550,155.991791 185.934662,157.398285 
	C185.606064,157.171967 185.277466,156.945648 184.948868,156.719330 
	C185.431763,155.627716 185.914658,154.536087 186.633270,153.248199 
z"/>
<path fill="#FBFCFC" opacity="1.000000" stroke="none" 
	d="
M182.215820,162.890106 
	C181.908020,163.037659 181.447037,163.017242 181.217819,162.991119 
	C181.918930,161.382904 182.849258,159.800842 183.779602,158.218765 
	C184.128387,158.408417 184.477188,158.598053 184.825989,158.787704 
	C184.058533,160.105988 183.291092,161.424286 182.215820,162.890106 
z"/>
<path fill="#FEFEFF" opacity="1.000000" stroke="none" 
	d="
M2706.973877,84.957779 
	C2723.378418,70.763313 2741.772461,63.261845 2763.436279,64.717392 
	C2787.631348,66.342987 2806.302246,78.041946 2820.953125,96.578537 
	C2851.032715,134.635864 2844.698730,193.179871 2807.445312,223.839981 
	C2773.977051,251.384811 2727.856934,246.932266 2699.495117,213.819992 
	C2668.217041,177.302979 2669.686035,119.506348 2706.973877,84.957779 
z"/>
<path fill="#FFFFFF" opacity="1.000000" stroke="none" 
	d="
M435.204712,225.265106 
	C421.768311,233.041672 407.643616,236.695160 392.470245,236.499100 
	C381.813812,236.361404 371.154175,236.472504 360.101624,236.472504 
	C360.101624,181.045547 360.101624,125.818428 360.101624,70.232857 
	C360.926819,70.124748 362.028992,69.832947 363.123566,69.859192 
	C377.923645,70.214012 392.843140,69.551834 407.497528,71.215790 
	C440.932953,75.012276 471.792236,106.562782 476.069458,139.972534 
	C480.814026,177.033096 466.771027,205.156433 435.204712,225.265106 
z"/>
<path fill="#FEFEFE" opacity="1.000000" stroke="none" 
	d="
M1483.165894,127.999771 
	C1483.165894,96.228264 1483.165894,64.956711 1483.165894,33.916389 
	C1483.968872,33.536560 1484.257324,33.279865 1484.544800,33.281174 
	C1508.023804,33.388103 1531.564209,32.491611 1554.966431,33.894466 
	C1585.643799,35.733433 1607.592651,61.249378 1606.922974,92.051125 
	C1606.213745,124.668785 1581.658813,148.774170 1549.041016,148.827972 
	C1528.882568,148.861221 1508.724121,148.834152 1488.565674,148.834152 
	C1486.944824,148.834152 1485.323975,148.834152 1483.165894,148.834152 
	C1483.165894,141.728455 1483.165894,135.114090 1483.165894,127.999771 
z"/>
<path fill="#FEFEFE" opacity="1.000000" stroke="none" 
	d="
M1102.635986,33.173931 
	C1122.012085,33.947060 1137.652710,41.282539 1148.712769,56.875835 
	C1173.705688,92.112961 1153.582153,145.795441 1106.699219,148.384003 
	C1085.151489,149.573730 1063.483521,148.586624 1041.518188,148.586624 
	C1041.518188,110.299500 1041.518188,72.101845 1041.518188,33.167503 
	C1061.699097,33.167503 1081.934082,33.167503 1102.635986,33.173931 
z"/>
</svg>